<?xml version="1.0" standalone="no"?>
<!DOCTYPE svg PUBLIC "-//W3C//DTD SVG 20010904//EN"
 "http://www.w3.org/TR/2001/REC-SVG-20010904/DTD/svg10.dtd">
<svg version="1.0" xmlns="http://www.w3.org/2000/svg"
 width="200.000000pt" height="200.000000pt" viewBox="0 0 200.000000 200.000000"
 preserveAspectRatio="xMidYMid meet">
<metadata>
Created by potrace 1.15, written by Peter Selinger 2001-2017
</metadata>
<g transform="translate(0.000000,200.000000) scale(0.100000,-0.100000)"
fill="#000000" stroke="none">
<path d="M1388 1789 c-29 -34 -82 -89 -117 -123 -35 -33 -102 -112 -147 -173
-46 -62 -87 -113 -91 -112 -5 0 -25 23 -46 51 -22 27 -51 57 -66 65 -14 9 -56
53 -91 99 -36 46 -68 84 -71 84 -4 0 -25 25 -48 55 -51 68 -91 105 -112 105
-9 0 -38 -24 -64 -52 -27 -29 -98 -106 -159 -172 -61 -65 -117 -128 -125 -140
-8 -11 -32 -40 -53 -64 -22 -24 -38 -48 -35 -55 4 -14 88 -24 213 -26 50 -1
112 -4 137 -7 44 -6 46 -8 32 -26 -7 -11 -41 -50 -75 -87 -34 -36 -76 -81 -93
-98 -16 -18 -33 -33 -37 -33 -4 0 -22 -21 -40 -47 -19 -27 -58 -78 -88 -116
l-54 -67 42 -53 c23 -28 51 -67 62 -84 11 -18 23 -33 27 -33 4 0 25 -26 47
-57 21 -32 50 -69 64 -83 14 -14 57 -62 94 -107 38 -46 75 -83 82 -83 7 0 22
13 34 30 11 16 78 87 148 157 70 71 156 166 191 211 l64 83 40 -38 c53 -50 76
-76 77 -87 0 -9 20 -32 134 -160 117 -131 179 -196 186 -196 4 0 15 18 25 41
10 22 42 64 69 93 28 29 69 77 91 106 22 29 84 97 138 151 53 54 97 105 97
112 0 8 -9 22 -20 32 -12 11 -33 41 -47 67 -14 26 -29 48 -33 48 -4 0 -35 34
-69 75 -34 41 -68 75 -74 75 -14 1 -46 33 -102 103 -31 39 -36 50 -24 58 18
11 105 12 145 0 34 -10 208 0 220 12 9 8 -9 43 -66 127 -49 72 -91 122 -168
194 -34 33 -75 80 -92 105 -16 25 -45 58 -64 73 l-35 28 -53 -61z m-769 1 c10
-5 36 -33 58 -62 22 -29 58 -73 81 -97 23 -25 58 -68 79 -97 21 -29 47 -56 58
-60 24 -7 71 -58 91 -96 14 -27 13 -30 -47 -103 -34 -41 -65 -75 -68 -75 -4 0
-15 -15 -26 -32 -10 -18 -41 -57 -69 -86 -37 -40 -47 -55 -38 -64 13 -13 54
24 107 97 16 22 43 54 60 71 16 17 50 55 74 83 24 29 48 50 53 49 9 -3 56 -77
74 -115 3 -7 13 -15 22 -18 10 -3 28 -22 41 -42 27 -40 109 -123 123 -123 4 0
8 4 8 10 0 10 -85 113 -142 170 -20 21 -44 53 -53 71 -10 19 -24 42 -32 51 -9
10 -13 24 -9 33 12 33 114 161 206 259 52 55 113 121 134 145 46 53 51 51 118
-40 26 -35 51 -67 55 -71 5 -5 33 -32 63 -60 85 -81 191 -221 178 -234 -6 -5
-58 -6 -272 -4 -81 1 -111 -2 -117 -12 -5 -8 -4 -17 4 -23 7 -5 27 -30 46 -55
18 -25 72 -84 120 -131 108 -108 164 -171 203 -232 l31 -49 -95 -96 c-52 -53
-112 -119 -133 -147 -21 -27 -60 -72 -86 -100 -26 -27 -53 -63 -61 -79 l-15
-28 -88 98 c-48 55 -100 110 -114 124 -15 14 -46 52 -68 85 -23 33 -68 86
-101 118 l-59 58 -54 -67 c-30 -37 -74 -93 -99 -124 -25 -30 -93 -102 -152
-159 -59 -57 -110 -112 -113 -123 -4 -10 -10 -18 -15 -18 -5 0 -34 30 -64 68
-31 37 -71 83 -90 102 -19 19 -45 52 -59 73 -14 21 -37 53 -51 70 -14 18 -46
58 -72 89 l-45 57 67 88 c37 48 97 118 134 155 82 81 210 231 210 247 0 6 -10
13 -22 16 -18 5 -221 13 -355 15 -13 0 -23 5 -23 10 0 6 4 10 9 10 5 0 28 26
51 58 41 54 73 90 200 220 30 32 70 74 88 95 36 41 36 41 61 27z"/>
</g>
</svg>
