<?xml version="1.0" encoding="UTF-8" standalone="no"?>
<svg
   xmlns:dc="http://purl.org/dc/elements/1.1/"
   xmlns:cc="http://creativecommons.org/ns#"
   xmlns:rdf="http://www.w3.org/1999/02/22-rdf-syntax-ns#"
   xmlns:svg="http://www.w3.org/2000/svg"
   xmlns="http://www.w3.org/2000/svg"
   xmlns:sodipodi="http://sodipodi.sourceforge.net/DTD/sodipodi-0.dtd"
   xmlns:inkscape="http://www.inkscape.org/namespaces/inkscape"
   version="1.0"
   width="64.000000pt"
   height="64.000000pt"
   viewBox="0 0 64.000000 64.000000"
   preserveAspectRatio="xMidYMid meet"
   id="svg3827"
   sodipodi:docname="github.svg"
   inkscape:version="0.92.3 (d244b95, 2018-08-02)">
  <defs
     id="defs3831" />
  <sodipodi:namedview
     pagecolor="#ffffff"
     bordercolor="#666666"
     borderopacity="1"
     objecttolerance="10"
     gridtolerance="10"
     guidetolerance="10"
     inkscape:pageopacity="0"
     inkscape:pageshadow="2"
     inkscape:window-width="1855"
     inkscape:window-height="1056"
     id="namedview3829"
     showgrid="false"
     inkscape:zoom="2.765625"
     inkscape:cx="42.666667"
     inkscape:cy="42.666667"
     inkscape:window-x="65"
     inkscape:window-y="24"
     inkscape:window-maximized="1"
     inkscape:current-layer="svg3827" />
  <metadata
     id="metadata3821">
Created by potrace 1.15, written by Peter Selinger 2001-2017
<rdf:RDF>
  <cc:Work
     rdf:about="">
    <dc:format>image/svg+xml</dc:format>
    <dc:type
       rdf:resource="http://purl.org/dc/dcmitype/StillImage" />
  </cc:Work>
</rdf:RDF>
</metadata>
  <g
     transform="matrix(0.11601674,0,0,-0.11764432,-4.9637724,69.607134)"
     id="g3825"
     style="fill:#000000;stroke:none">
    <path
       d="M 268,511 C 127,466 78,302 172,194 c 34,-39 83,-68 98,-59 22,13 10,43 -19,48 -17,4 -35,16 -42,29 -12,22 -11,22 8,6 25,-23 49,-23 62,0 8,14 4,20 -22,32 -43,20 -62,61 -48,102 6,17 11,42 11,56 0,19 3,23 18,16 22,-10 142,-10 165,0 14,7 17,3 17,-16 0,-14 5,-39 11,-56 14,-40 -5,-81 -46,-102 -28,-14 -30,-18 -25,-63 3,-26 8,-47 13,-47 4,0 14,0 22,0 20,0 83,57 102,93 24,48 21,136 -8,186 -40,72 -146,116 -221,92 z"
       id="path3823"
       inkscape:connector-curvature="0" />
  </g>
</svg>
