<?xml version="1.0" standalone="no"?>
<!DOCTYPE svg PUBLIC "-//W3C//DTD SVG 20010904//EN"
 "http://www.w3.org/TR/2001/REC-SVG-20010904/DTD/svg10.dtd">
<svg version="1.0" xmlns="http://www.w3.org/2000/svg"
 width="172.000000pt" height="156.000000pt" viewBox="0 0 172.000000 156.000000"
 preserveAspectRatio="xMidYMid meet">
<metadata>
Created by potrace 1.15, written by Peter Selinger 2001-2017
</metadata>
<g transform="translate(0.000000,156.000000) scale(0.100000,-0.100000)"
fill="#000000" stroke="none">
<path d="M1220 1341 c-47 -15 -85 -39 -122 -78 -56 -58 -71 -102 -70 -210 2
-138 -26 -153 -155 -82 -125 69 -221 84 -338 53 -123 -31 -216 -108 -273 -222
-33 -68 -37 -85 -40 -169 -3 -77 0 -105 18 -157 42 -117 133 -212 247 -257 47
-19 78 -23 158 -24 92 0 105 3 168 32 133 63 225 183 250 326 9 55 8 81 -6
155 -29 152 0 185 118 138 146 -58 287 -10 351 120 66 134 14 287 -119 356
-45 22 -145 33 -187 19z m-577 -732 c9 1 27 2 40 3 12 0 48 -9 81 -21 47 -18
64 -20 88 -12 29 10 30 10 25 -15 -3 -16 1 -28 9 -31 10 -4 10 -9 2 -22 -10
-17 -16 -16 -87 12 -104 42 -202 42 -315 3 -59 -21 -81 -25 -90 -16 -22 22
-11 35 39 48 27 7 72 24 100 37 27 13 59 21 70 18 11 -3 28 -4 38 -4z"/>
</g>
</svg>
