<?xml version="1.0" standalone="no"?>
<!DOCTYPE svg PUBLIC "-//W3C//DTD SVG 20010904//EN"
 "http://www.w3.org/TR/2001/REC-SVG-20010904/DTD/svg10.dtd">
<svg version="1.0" xmlns="http://www.w3.org/2000/svg"
 width="200.000000pt" height="200.000000pt" viewBox="0 0 200.000000 200.000000"
 preserveAspectRatio="xMidYMid meet">
<metadata>
Created by potrace 1.15, written by Peter Selinger 2001-2017
</metadata>
<g transform="translate(0.000000,200.000000) scale(0.100000,-0.100000)"
fill="#000000" stroke="none">
<path d="M280 1400 c-82 -89 -130 -235 -125 -382 2 -51 5 -100 7 -108 23 -85
71 -191 105 -229 12 -14 27 -32 33 -38 27 -32 91 0 84 41 -1 10 -18 42 -37 70
-47 70 -74 132 -82 186 -9 52 -8 154 0 190 3 14 8 36 11 48 3 13 11 34 19 46
8 13 12 26 8 29 -3 4 -1 7 5 7 7 0 12 6 12 13 0 7 14 30 31 50 34 42 40 77 16
101 -25 25 -47 19 -87 -24z"/>
<path d="M1643 1430 c-37 -15 -34 -58 8 -109 16 -20 29 -41 29 -48 0 -7 5 -13
12 -13 6 0 8 -3 5 -7 -4 -3 0 -17 8 -29 8 -13 16 -31 18 -41 1 -10 5 -22 8
-28 3 -5 7 -30 9 -55 10 -150 -10 -230 -87 -346 -19 -28 -36 -60 -37 -70 -7
-41 57 -73 84 -41 6 6 21 24 33 38 34 38 82 144 105 229 2 8 5 57 7 108 5 147
-43 293 -125 382 -39 43 -43 44 -77 30z"/>
<path d="M1527 1312 c-10 -2 -23 -15 -28 -30 -8 -20 -6 -31 9 -52 85 -114 94
-259 22 -358 -40 -56 -45 -77 -21 -101 12 -12 28 -21 36 -21 26 0 64 46 98
118 29 62 32 75 32 167 0 107 -15 155 -71 237 -26 37 -45 47 -77 40z"/>
<path d="M397 1273 c-57 -83 -72 -131 -72 -238 0 -92 3 -105 32 -167 34 -72
72 -118 98 -118 8 0 24 9 36 21 24 24 19 45 -21 101 -72 99 -63 244 22 358 15
21 17 31 9 53 -9 22 -17 27 -44 27 -28 0 -39 -7 -60 -37z"/>
<path d="M647 1256 c-98 -36 -151 -116 -151 -226 1 -145 107 -242 250 -227 81
8 130 41 279 187 173 169 213 192 295 170 76 -21 109 -105 70 -184 -40 -83
-130 -98 -217 -37 -64 46 -103 38 -103 -20 0 -51 117 -118 206 -119 68 0 149
41 186 95 118 170 -17 402 -215 371 -82 -14 -124 -42 -275 -189 -161 -157
-207 -186 -278 -172 -80 15 -125 107 -87 182 42 85 122 102 212 46 75 -47 111
-41 111 18 0 30 -33 60 -99 94 -46 23 -137 29 -184 11z"/>
</g>
</svg>
