<?xml version="1.0" standalone="no"?>
<!DOCTYPE svg PUBLIC "-//W3C//DTD SVG 20010904//EN"
 "http://www.w3.org/TR/2001/REC-SVG-20010904/DTD/svg10.dtd">
<svg version="1.0" xmlns="http://www.w3.org/2000/svg"
 width="225.000000pt" height="225.000000pt" viewBox="0 0 225.000000 225.000000"
 preserveAspectRatio="xMidYMid meet">
<metadata>
Created by potrace 1.15, written by Peter Selinger 2001-2017
</metadata>
<g transform="translate(0.000000,225.000000) scale(0.100000,-0.100000)"
fill="#000000" stroke="none">
<path d="M430 1988 c-19 -12 -46 -35 -60 -52 l-25 -30 -3 -346 c-2 -351 -5
-396 -22 -385 -6 4 -8 10 -5 15 3 5 -9 5 -27 0 -33 -10 -48 -25 -48 -49 0 -8
32 -45 72 -83 69 -66 118 -99 240 -160 32 -16 59 -32 62 -37 3 -4 -1 -34 -9
-67 -42 -175 -1 -362 102 -462 38 -37 146 -82 198 -82 75 0 150 49 174 113 6
16 11 105 11 207 0 143 3 179 14 183 8 3 17 3 20 0 3 -4 6 -84 6 -178 0 -222
10 -254 95 -298 56 -29 156 -29 210 0 22 11 43 21 48 22 4 0 20 15 35 33 81
95 112 177 112 296 -1 48 -7 120 -14 160 -9 51 -9 75 -2 80 6 5 50 27 97 51
124 61 269 187 269 234 0 7 -12 20 -26 27 -20 11 -29 12 -44 2 -11 -7 -22 -12
-24 -12 -3 0 -6 165 -8 368 l-3 367 -25 33 c-14 19 -42 43 -62 53 -35 18 -68
19 -680 19 -636 -1 -643 -1 -678 -22z m1293 -92 c66 -27 66 -26 67 -407 1
-420 2 -389 -12 -389 -6 0 -30 -9 -52 -19 -123 -59 -180 -70 -373 -70 -83 -1
-163 -5 -176 -10 -14 -5 -31 -23 -38 -40 l-13 -30 -26 26 c-49 50 -57 52 -226
54 -132 1 -178 6 -254 25 -51 13 -100 30 -109 37 -9 8 -29 17 -44 21 -20 5
-27 11 -23 21 3 8 1 15 -5 15 -7 0 -9 112 -7 348 3 323 5 349 23 378 10 17 30
36 44 42 17 6 240 10 609 11 471 1 589 -2 615 -13z"/>
<path d="M781 1455 c-80 -25 -141 -112 -141 -199 0 -38 34 -114 61 -139 50
-46 170 -62 242 -32 40 16 78 63 96 114 35 105 -22 218 -128 256 -52 18 -72
18 -130 0z"/>
<path d="M1290 1459 c-51 -16 -87 -45 -116 -95 -23 -39 -26 -53 -22 -114 3
-59 8 -74 34 -107 44 -54 86 -72 169 -72 81 0 112 15 159 73 27 32 31 47 34
109 4 68 2 75 -30 121 -18 27 -49 58 -68 68 -46 23 -115 30 -160 17z"/>
</g>
</svg>
