<?xml version="1.0" standalone="no"?>
<!DOCTYPE svg PUBLIC "-//W3C//DTD SVG 20010904//EN"
 "http://www.w3.org/TR/2001/REC-SVG-20010904/DTD/svg10.dtd">
<svg version="1.0" xmlns="http://www.w3.org/2000/svg"
 width="200.000000pt" height="200.000000pt" viewBox="0 0 200.000000 200.000000"
 preserveAspectRatio="xMidYMid meet">
<metadata>
Created by potrace 1.15, written by Peter Selinger 2001-2017
</metadata>
<g transform="translate(0.000000,200.000000) scale(0.100000,-0.100000)"
fill="#000000" stroke="none">
<path d="M1160 1816 c-69 -51 -271 -202 -450 -335 l-324 -241 201 0 200 0 5
49 c6 61 39 115 91 149 55 37 144 38 200 3 53 -32 89 -90 95 -151 l5 -50 159
0 160 0 98 72 c60 44 96 77 92 84 -27 45 -389 513 -397 513 -5 0 -66 -42 -135
-93z"/>
<path d="M635 1634 c-184 -280 -200 -304 -189 -304 9 0 578 420 582 429 3 9
-192 141 -208 141 -5 0 -88 -120 -185 -266z"/>
<path d="M173 1309 c-34 -10 -80 -58 -88 -92 -3 -12 -4 -248 -3 -524 l3 -501
25 -27 c54 -57 17 -55 820 -55 803 0 766 -2 820 55 l25 27 3 487 c2 404 0 490
-11 499 -10 9 -230 13 -798 14 -776 3 -784 3 -784 23 0 18 8 21 75 25 63 4 82
10 117 35 24 17 43 33 43 38 0 10 -208 7 -247 -4z"/>
<path d="M1620 1283 l-55 -38 102 -5 c96 -5 105 -7 130 -33 l28 -27 3 -450 c2
-386 5 -448 17 -444 8 3 24 21 35 39 19 31 20 48 20 468 l0 435 -27 33 c-35
41 -79 59 -145 59 -45 0 -62 -6 -108 -37z"/>
</g>
</svg>
